<svg xmlns="http://www.w3.org/2000/svg" version="1.1" xmlns:xlink="http://www.w3.org/1999/xlink" xmlns:svgjs="http://svgjs.dev/svgjs" width="1440" height="560" preserveAspectRatio="none" viewBox="0 0 1440 560"><g clip-path="url(&quot;#SvgjsClipPath1000&quot;)" fill="none"><rect width="1440" height="560" x="0" y="0" fill="#0e2a47"></rect><path d="M48.57 56.54Q57.61 58.98 66.66 61.43 75.7 63.82 84.74 66.21 93.79 68.52 102.83 70.84" stroke="#0080ff" stroke-width="4"></path><path d="M122.08 75.58Q124.8 76.23 127.52 76.88 130.23 77.52 132.95 78.16 135.67 78.79 138.39 79.42" stroke="#ff0080" stroke-width="4"></path><path d="M158.13 83.81Q166.57 85.58 175.01 87.34 183.45 88.98 191.9 90.62 200.34 92.13 208.78 93.64 217.22 95.02 225.66 96.39 234.1 97.62 242.54 98.85 250.99 99.93 259.43 101.01 267.87 101.93 276.31 102.86" stroke="#ff00ff" stroke-width="4"></path><path d="M287.66 103.92Q295.75 104.54 303.84 105.17 311.94 105.64 320.03 106.11 328.12 106.42 336.21 106.73 344.31 106.89 352.4 107.04 360.49 107.04 368.58 107.03 376.68 106.87 384.77 106.7 392.86 106.38 400.95 106.06 409.04 105.58 417.14 105.1 425.23 104.46 433.32 103.83 441.41 103.04 449.51 102.26 457.6 101.32 465.69 100.39" stroke="#8000ff" stroke-width="4"></path><path d="M500.7 95.39Q504.53 94.76 508.36 94.13 512.19 93.47 516.02 92.81 519.85 92.12 523.68 91.44" stroke="#ff0080" stroke-width="4"></path><path d="M537.96 88.73Q545.47 87.22 552.98 85.7 560.49 84.09 568 82.48 575.51 80.79 583.02 79.09 590.53 77.32 598.04 75.55 605.55 73.71 613.06 71.87 620.56 69.97 628.07 68.06 635.58 66.11 643.09 64.15 650.6 62.15 658.11 60.15 665.62 58.11 673.13 56.07 680.64 54.01 688.15 51.94" stroke="#0080ff" stroke-width="4"></path><path d="M726.28 41.32Q733.89 39.2 741.51 37.08 749.12 34.97 756.73 32.86 764.35 30.78 771.96 28.69 779.58 26.64 787.19 24.58 794.8 22.57 802.42 20.55 810.03 18.59 817.64 16.63 825.26 14.72 832.87 12.82 840.48 10.98 848.1 9.14 855.71 7.38 863.33 5.61 870.94 3.93 878.55 2.25 886.17 0.66 893.78-0.93" stroke="#4000ff" stroke-width="4"></path><path d="M915.9-5.21Q924.43-6.7 932.96-8.2 941.49-9.55 950.02-10.9 958.55-12.11 967.08-13.31 975.61-14.36 984.14-15.41" stroke="#00ffff" stroke-width="4"></path><path d="M1018.36-18.62Q1026.31-19.14 1034.26-19.65 1042.22-20.02 1050.17-20.38 1058.12-20.59 1066.07-20.8 1074.03-20.86 1081.98-20.92 1089.93-20.82 1097.88-20.73 1105.84-20.48 1113.79-20.23 1121.74-19.83 1129.69-19.42 1137.64-18.87 1145.6-18.32 1153.55-17.62 1161.5-16.92 1169.45-16.07 1177.41-15.23 1185.36-14.24 1193.31-13.26" stroke="#8000ff" stroke-width="4"></path><path d="M1213.59-10.35Q1221.63-9.05 1229.68-7.75 1237.72-6.33 1245.77-4.9 1253.81-3.35 1261.85-1.81 1269.9-0.16 1277.94 1.5 1285.99 3.26 1294.03 5.02 1302.08 6.87 1310.12 8.72 1318.16 10.65 1326.21 12.59 1334.25 14.6 1342.3 16.61 1350.34 18.69 1358.38 20.76 1366.43 22.9 1374.47 25.03 1382.52 27.2 1390.56 29.38" stroke="#ff0080" stroke-width="4"></path><path d="M1402.59 32.68Q1407.27 33.97 1411.94 35.26 1416.62 36.56 1421.3 37.86 1425.97 39.16 1430.65 40.47 1435.32 41.77 1440 43.08" stroke="#ff0080" stroke-width="4"></path><path d="M44.2 98.42Q52.39 100.65 60.57 102.87 68.76 105.06 76.94 107.24 85.13 109.37 93.32 111.5 101.5 113.56 109.69 115.63" stroke="#8000ff" stroke-width="4"></path><path d="M135.74 121.88Q144.05 123.76 152.35 125.63 160.66 127.41 168.96 129.18 177.27 130.84 185.58 132.5 193.88 134.03 202.19 135.57 210.5 136.98 218.8 138.39 227.11 139.66 235.41 140.93 243.72 142.05 252.03 143.18 260.33 144.16 268.64 145.14 276.94 145.96 285.25 146.78" stroke="#00ffff" stroke-width="4"></path><path d="M313.71 148.85Q318.61 149.1 323.5 149.34 328.39 149.53 333.29 149.72 338.18 149.85 343.08 149.98" stroke="#ff00ff" stroke-width="4"></path><path d="M375.61 150.01Q383.19 149.79 390.78 149.58 398.36 149.22 405.95 148.87 413.53 148.38 421.12 147.89 428.7 147.27 436.28 146.64 443.87 145.88 451.45 145.13 459.04 144.24 466.62 143.35 474.21 142.34 481.79 141.33" stroke="#00ffff" stroke-width="4"></path><path d="M521.44 134.92Q529.77 133.35 538.1 131.78 546.43 130.09 554.76 128.4 563.09 126.6 571.42 124.8 579.75 122.9 588.08 120.99 596.41 119 604.74 117" stroke="#4000ff" stroke-width="4"></path><path d="M625.23 111.87Q633.27 109.78 641.32 107.7 649.36 105.56 657.4 103.42 665.45 101.24 673.49 99.05 681.53 96.84 689.58 94.62 697.62 92.39 705.66 90.15 713.71 87.91 721.75 85.67 729.79 83.42 737.84 81.18 745.88 78.95 753.92 76.72 761.97 74.51 770.01 72.3 778.05 70.12 786.1 67.95 794.14 65.82 802.18 63.69 810.23 61.62 818.27 59.54" stroke="#ff00ff" stroke-width="4"></path><path d="M832.79 55.91Q840.41 54.07 848.04 52.23 855.66 50.46 863.28 48.7 870.9 47.01 878.53 45.33 886.15 43.74 893.77 42.14 901.4 40.65 909.02 39.15 916.64 37.76 924.27 36.37 931.89 35.09 939.51 33.81 947.13 32.64 954.76 31.47 962.38 30.43 970 29.38 977.63 28.47 985.25 27.55" stroke="#0080ff" stroke-width="4"></path><path d="M1006.29 25.44Q1014.18 24.81 1022.07 24.19 1029.97 23.71 1037.86 23.23 1045.75 22.9 1053.64 22.58 1061.54 22.4 1069.43 22.22 1077.32 22.2 1085.21 22.17 1093.11 22.3 1101 22.42 1108.89 22.7 1116.78 22.98 1124.67 23.4 1132.57 23.83 1140.46 24.4 1148.35 24.98 1156.24 25.7 1164.14 26.42 1172.03 27.28 1179.92 28.14" stroke="#4000ff" stroke-width="4"></path><path d="M1211.06 32.34Q1218.62 33.54 1226.18 34.74 1233.73 36.05 1241.29 37.36 1248.85 38.78 1256.41 40.2 1263.97 41.71 1271.52 43.23 1279.08 44.84 1286.64 46.45 1294.2 48.15 1301.76 49.85 1309.31 51.62 1316.87 53.4 1324.43 55.25 1331.99 57.1 1339.55 59.01 1347.1 60.92 1354.66 62.88 1362.22 64.85" stroke="#ff0080" stroke-width="4"></path><path d="M1385.66 71.12Q1390.19 72.36 1394.72 73.59 1399.25 74.84 1403.77 76.08 1408.3 77.33 1412.83 78.58 1417.36 79.84 1421.89 81.1 1426.41 82.36 1430.94 83.63 1435.47 84.89 1440 86.15" stroke="#ff00ff" stroke-width="4"></path><path d="M16.29 133.78Q24.32 136.01 32.36 138.24 40.39 140.44 48.42 142.65 56.46 144.83 64.49 147 72.52 149.13 80.56 151.27 88.59 153.34 96.62 155.42 104.66 157.43 112.69 159.45 120.72 161.39 128.75 163.32 136.79 165.18 144.82 167.03 152.85 168.8 160.89 170.56 168.92 172.22 176.95 173.88 184.99 175.43 193.02 176.98" stroke="#00ffff" stroke-width="4"></path><path d="M231.57 183.44Q240.06 184.63 248.56 185.81 257.05 186.84 265.55 187.87 274.04 188.74 282.54 189.61 291.03 190.31 299.53 191.02" stroke="#8000ff" stroke-width="4"></path><path d="M318.34 192.18Q326.97 192.52 335.6 192.87 344.23 193.03 352.86 193.2 361.48 193.18 370.11 193.17 378.74 192.97 387.37 192.77" stroke="#00ffff" stroke-width="4"></path><path d="M418.88 191.13Q428.16 190.37 437.45 189.61 446.73 188.65 456.01 187.7 465.3 186.55 474.58 185.4 483.87 184.06 493.15 182.73" stroke="#4000ff" stroke-width="4"></path><path d="M512.1 179.65Q516.5 178.87 520.91 178.09 525.32 177.28 529.72 176.47 534.13 175.62 538.53 174.77" stroke="#4000ff" stroke-width="4"></path><path d="M558.36 170.72Q566.2 169.01 574.04 167.29 581.87 165.49 589.71 163.69 597.55 161.8 605.39 159.92 613.23 157.96 621.07 156.01 628.9 153.99 636.74 151.97 644.58 149.9 652.42 147.83 660.26 145.72 668.09 143.6 675.93 141.45 683.77 139.31 691.61 137.13 699.45 134.96 707.29 132.78 715.12 130.59 722.96 128.4 730.8 126.22" stroke="#ff0080" stroke-width="4"></path><path d="M742.46 122.97Q751.39 120.5 760.33 118.03 769.26 115.59 778.19 113.15 787.13 110.77 796.06 108.38 804.99 106.05 813.92 103.73 822.86 101.48 831.79 99.24" stroke="#0080ff" stroke-width="4"></path><path d="M852.02 94.37Q856.08 93.43 860.14 92.49 864.2 91.57 868.26 90.66 872.32 89.76 876.38 88.87" stroke="#ff0080" stroke-width="4"></path><path d="M888.8 86.24Q898.48 84.32 908.16 82.39 917.84 80.64 927.51 78.88 937.19 77.31 946.87 75.73" stroke="#ff0080" stroke-width="4"></path><path d="M967.69 72.76Q973.86 71.99 980.04 71.22 986.21 70.54 992.38 69.85 998.56 69.25 1004.73 68.65" stroke="#00ffff" stroke-width="4"></path><path d="M1039.93 66.21Q1048.03 65.89 1056.12 65.58 1064.22 65.42 1072.32 65.27 1080.41 65.27 1088.51 65.27 1096.61 65.44 1104.7 65.6 1112.8 65.92 1120.89 66.25 1128.99 66.73 1137.09 67.21 1145.18 67.84 1153.28 68.47 1161.38 69.26 1169.47 70.05 1177.57 70.98 1185.67 71.91 1193.76 72.99 1201.86 74.07" stroke="#4000ff" stroke-width="4"></path><path d="M1224.47 77.53Q1231.18 78.68 1237.88 79.83 1244.59 81.06 1251.29 82.29 1257.99 83.6 1264.7 84.91" stroke="#ff00ff" stroke-width="4"></path><path d="M1277.24 87.5Q1284.89 89.17 1292.54 90.83 1300.19 92.59 1307.84 94.34 1315.49 96.16 1323.13 97.99 1330.78 99.89 1338.43 101.79 1346.08 103.75 1353.73 105.7 1361.38 107.72 1369.03 109.73" stroke="#ff0080" stroke-width="4"></path><path d="M1408.03 120.33Q1411.23 121.22 1414.42 122.1 1417.62 122.99 1420.82 123.88 1424.01 124.77 1427.21 125.66 1430.41 126.55 1433.61 127.45 1436.8 128.34 1440 129.23" stroke="#4000ff" stroke-width="4"></path><path d="M30.33 180.75Q38.56 183.02 46.79 185.28 55.01 187.51 63.24 189.74 71.47 191.93 79.7 194.12 87.93 196.25 96.15 198.38 104.38 200.44 112.61 202.5" stroke="#0080ff" stroke-width="4"></path><path d="M145.6 210.29Q153.89 212.1 162.17 213.91 170.46 215.61 178.75 217.31 187.03 218.9 195.32 220.48 203.61 221.94 211.89 223.4 220.18 224.73 228.47 226.05 236.75 227.24 245.04 228.42" stroke="#00ffff" stroke-width="4"></path><path d="M255.47 229.77Q264.75 230.81 274.02 231.86 283.3 232.71 292.57 233.56 301.85 234.21 311.13 234.86 320.4 235.3 329.68 235.75" stroke="#00ffff" stroke-width="4"></path><path d="M343.12 236.13Q351.13 236.22 359.15 236.31 367.16 236.24 375.18 236.17 383.19 235.94 391.2 235.72 399.22 235.33 407.23 234.95 415.24 234.42 423.26 233.89 431.27 233.2 439.29 232.52 447.3 231.68 455.31 230.85 463.33 229.88 471.34 228.9 479.35 227.79 487.37 226.68 495.38 225.43 503.4 224.18 511.41 222.81 519.42 221.44 527.44 219.95 535.45 218.45" stroke="#00ffff" stroke-width="4"></path><path d="M571.26 210.99Q579.44 209.12 587.62 207.25 595.8 205.3 603.99 203.34 612.17 201.3 620.35 199.27 628.53 197.16 636.71 195.06 644.89 192.9 653.07 190.73 661.25 188.52 669.44 186.31 677.62 184.07 685.8 181.82 693.98 179.55 702.16 177.28 710.34 175 718.52 172.72 726.71 170.44 734.89 168.15 743.07 165.88 751.25 163.61" stroke="#00ffff" stroke-width="4"></path><path d="M770.81 158.23Q778.41 156.18 786.02 154.13 793.62 152.11 801.23 150.1 808.83 148.13 816.43 146.17 824.04 144.26 831.64 142.35 839.25 140.51 846.85 138.67" stroke="#0080ff" stroke-width="4"></path><path d="M879.31 131.32Q887.14 129.69 894.97 128.06 902.8 126.53 910.63 125 918.47 123.59 926.3 122.17 934.13 120.87 941.96 119.57 949.79 118.39 957.62 117.22 965.45 116.17 973.28 115.12 981.11 114.21 988.95 113.29 996.78 112.52 1004.61 111.74 1012.44 111.1 1020.27 110.47" stroke="#00ffff" stroke-width="4"></path><path d="M1031.51 109.73Q1039.01 109.36 1046.52 108.99 1054.02 108.75 1061.52 108.52 1069.03 108.42 1076.53 108.32 1084.03 108.35 1091.54 108.39 1099.04 108.56 1106.54 108.74 1114.05 109.05 1121.55 109.36 1129.05 109.8 1136.56 110.25 1144.06 110.82 1151.56 111.4 1159.07 112.11 1166.57 112.82 1174.07 113.66 1181.58 114.49 1189.08 115.45 1196.58 116.41 1204.09 117.49 1211.59 118.57" stroke="#ff00ff" stroke-width="4"></path><path d="M1231.47 121.78Q1236.73 122.71 1241.99 123.64 1247.25 124.62 1252.51 125.6 1257.77 126.63 1263.03 127.66" stroke="#4000ff" stroke-width="4"></path><path d="M1273.63 129.82Q1281.65 131.55 1289.67 133.27 1297.69 135.1 1305.71 136.92 1313.73 138.83 1321.76 140.73 1329.78 142.72 1337.8 144.7 1345.82 146.76 1353.84 148.81" stroke="#ff0080" stroke-width="4"></path><path d="M1366.42 152.11Q1373.78 154.08 1381.14 156.05 1388.49 158.05 1395.85 160.06 1403.21 162.08 1410.57 164.11 1417.93 166.16 1425.28 168.2 1432.64 170.25 1440 172.31" stroke="#00ffff" stroke-width="4"></path><path d="M48.35 228.79Q50.95 229.5 53.55 230.2 56.16 230.91 58.76 231.61 61.36 232.31 63.96 233.01" stroke="#8000ff" stroke-width="4"></path><path d="M77.69 236.67Q79.73 237.2 81.78 237.74 83.82 238.27 85.86 238.81 87.91 239.33 89.95 239.86" stroke="#8000ff" stroke-width="4"></path><path d="M102.84 243.15Q110.71 245.09 118.58 247.04 126.44 248.91 134.31 250.78 142.18 252.57 150.05 254.36 157.91 256.05 165.78 257.75 173.65 259.34 181.51 260.94 189.38 262.43 197.25 263.91 205.12 265.29 212.99 266.66 220.85 267.92 228.72 269.17 236.59 270.3 244.46 271.42 252.32 272.42 260.19 273.41" stroke="#00ffff" stroke-width="4"></path><path d="M277.26 275.26Q285.53 276 293.79 276.73 302.06 277.31 310.32 277.89 318.59 278.3 326.86 278.72 335.12 278.97 343.39 279.22 351.65 279.3 359.92 279.38 368.18 279.3 376.45 279.22" stroke="#0080ff" stroke-width="4"></path><path d="M391.43 278.78Q399.23 278.41 407.03 278.04 414.84 277.53 422.64 277.01 430.44 276.35 438.24 275.69 446.05 274.89 453.85 274.09 461.65 273.16 469.45 272.22 477.25 271.16 485.06 270.09 492.86 268.9 500.66 267.7 508.46 266.39 516.27 265.08 524.07 263.65 531.87 262.22" stroke="#8000ff" stroke-width="4"></path><path d="M563.02 255.87Q571.88 253.9 580.73 251.93 589.59 249.84 598.45 247.76 607.3 245.58 616.16 243.4 625.02 241.14 633.88 238.87 642.73 236.54 651.59 234.21" stroke="#4000ff" stroke-width="4"></path><path d="M673.84 228.19Q681.71 226.02 689.59 223.85 697.46 221.67 705.33 219.48 713.2 217.28 721.08 215.08 728.95 212.89 736.82 210.69 744.7 208.51 752.57 206.32 760.44 204.16 768.31 201.99 776.19 199.86 784.06 197.73 791.93 195.64 799.81 193.55 807.68 191.51 815.55 189.47 823.43 187.49 831.3 185.51 839.17 183.6 847.04 181.7 854.92 179.87 862.79 178.04" stroke="#ff00ff" stroke-width="4"></path><path d="M874.81 175.37Q882.77 173.68 890.73 172 898.68 170.42 906.64 168.84 914.6 167.37 922.56 165.9" stroke="#00ffff" stroke-width="4"></path><path d="M944.59 162.23Q953.14 160.98 961.7 159.72 970.25 158.62 978.81 157.52 987.36 156.58 995.92 155.64 1004.47 154.87 1013.03 154.1 1021.58 153.5 1030.14 152.89" stroke="#00ffff" stroke-width="4"></path><path d="M1055.22 151.76Q1057.58 151.69 1059.95 151.63 1062.31 151.58 1064.68 151.53 1067.04 151.49 1069.41 151.45" stroke="#0080ff" stroke-width="4"></path><path d="M1105.76 151.79Q1114.29 152.14 1122.83 152.5 1131.36 153.03 1139.89 153.56 1148.42 154.26 1156.96 154.96 1165.49 155.83 1174.02 156.7 1182.56 157.73 1191.09 158.76" stroke="#00ffff" stroke-width="4"></path><path d="M1219.12 162.82Q1226.94 164.12 1234.76 165.43 1242.58 166.85 1250.4 168.27 1258.21 169.81 1266.03 171.34 1273.85 172.97 1281.67 174.6 1289.49 176.33 1297.31 178.06 1305.13 179.88 1312.95 181.69 1320.77 183.59 1328.58 185.48 1336.4 187.45 1344.22 189.41 1352.04 191.43 1359.86 193.46" stroke="#00ffff" stroke-width="4"></path><path d="M1393.99 202.62Q1396.87 203.41 1399.74 204.2 1402.62 204.99 1405.49 205.78 1408.37 206.58 1411.24 207.38 1414.12 208.17 1416.99 208.97 1419.87 209.77 1422.75 210.57 1425.62 211.37 1428.5 212.17 1431.37 212.98 1434.25 213.78 1437.12 214.58 1440 215.38" stroke="#8000ff" stroke-width="4"></path><path d="M11.59 261.7Q19.86 264 28.13 266.3 36.4 268.58 44.67 270.86 52.95 273.11 61.22 275.35 69.49 277.56 77.76 279.76 86.03 281.91 94.3 284.06 102.57 286.14 110.84 288.22 119.11 290.23 127.39 292.23 135.66 294.15 143.93 296.06 152.2 297.88 160.47 299.7" stroke="#8000ff" stroke-width="4"></path><path d="M178.75 303.47Q187.41 305.12 196.08 306.78 204.75 308.29 213.41 309.81 222.07 311.18 230.74 312.55 239.41 313.76 248.07 314.98" stroke="#ff0080" stroke-width="4"></path><path d="M260.59 316.53Q263.65 316.88 266.71 317.23 269.77 317.56 272.84 317.89 275.9 318.2 278.96 318.5" stroke="#0080ff" stroke-width="4"></path><path d="M289.31 319.44Q296.91 320.02 304.52 320.6 312.12 321.04 319.72 321.48 327.33 321.78 334.93 322.08 342.53 322.24 350.13 322.4 357.74 322.42 365.34 322.44 372.94 322.32 380.55 322.2 388.15 321.94 395.75 321.68 403.36 321.29 410.96 320.89 418.56 320.35 426.17 319.81 433.77 319.14 441.37 318.47 448.97 317.67 456.58 316.86 464.18 315.93 471.78 315 479.39 313.94 486.99 312.89" stroke="#0080ff" stroke-width="4"></path><path d="M521.8 307.16Q530.1 305.6 538.4 304.03 546.7 302.34 555 300.66 563.31 298.86 571.61 297.07 579.91 295.17 588.21 293.27 596.51 291.28 604.81 289.29 613.11 287.22 621.41 285.15 629.71 283.01 638.02 280.87 646.32 278.67 654.62 276.47 662.92 274.23 671.22 271.98" stroke="#00ffff" stroke-width="4"></path><path d="M692.11 266.23Q699.71 264.12 707.31 262 714.91 259.88 722.52 257.76 730.12 255.64 737.72 253.52 745.32 251.41 752.92 249.3 760.52 247.21 768.13 245.12 775.73 243.06 783.33 241" stroke="#0080ff" stroke-width="4"></path><path d="M797.35 237.27Q805.72 235.09 814.09 232.92 822.46 230.81 830.83 228.7 839.2 226.68 847.57 224.65 855.94 222.71 864.31 220.77 872.68 218.94 881.05 217.1 889.42 215.37 897.79 213.65" stroke="#ff0080" stroke-width="4"></path><path d="M925.27 208.5Q933.35 207.16 941.42 205.81 949.5 204.59 957.57 203.38 965.65 202.3 973.73 201.22 981.8 200.28 989.88 199.35 997.96 198.56 1006.03 197.77 1014.11 197.13 1022.18 196.49 1030.26 196 1038.34 195.52 1046.41 195.19 1054.49 194.86 1062.57 194.69 1070.64 194.51 1078.72 194.5 1086.79 194.49 1094.87 194.64 1102.95 194.78 1111.02 195.09 1119.1 195.39" stroke="#ff0080" stroke-width="4"></path><path d="M1133.51 196.2Q1141.33 196.78 1149.15 197.35 1156.98 198.07 1164.8 198.79 1172.62 199.65 1180.44 200.51 1188.26 201.5 1196.09 202.5 1203.91 203.62 1211.73 204.75" stroke="#8000ff" stroke-width="4"></path><path d="M1231.69 207.98Q1239.95 209.46 1248.22 210.94 1256.49 212.55 1264.75 214.15 1273.02 215.88 1281.28 217.6 1289.55 219.43 1297.81 221.25 1306.08 223.18 1314.34 225.1" stroke="#ff00ff" stroke-width="4"></path><path d="M1351.34 234.32Q1359.43 236.44 1367.51 238.56 1375.6 240.72 1383.69 242.89 1391.77 245.1 1399.86 247.31 1407.94 249.54 1416.03 251.78" stroke="#ff00ff" stroke-width="4"></path><path d="M2.56 302.25Q10.23 304.39 17.91 306.53 25.58 308.66 33.26 310.79 40.93 312.9 48.61 315.01 56.28 317.09 63.96 319.17 71.63 321.21 79.31 323.25 86.98 325.24 94.66 327.23 102.33 329.16 110 331.09 117.68 332.96 125.35 334.82 133.03 336.62 140.7 338.41 148.38 340.12 156.05 341.83 163.73 343.45 171.4 345.06 179.08 346.59 186.75 348.11 194.43 349.52 202.1 350.94" stroke="#ff0080" stroke-width="4"></path><path d="M231.94 355.8Q234.34 356.15 236.74 356.5 239.14 356.84 241.54 357.18 243.94 357.5 246.34 357.83" stroke="#0080ff" stroke-width="4"></path><path d="M274.67 361.15Q282.36 361.87 290.04 362.58 297.73 363.16 305.41 363.73 313.1 364.17 320.79 364.6 328.47 364.9 336.16 365.19 343.85 365.34 351.53 365.49 359.22 365.5 366.9 365.51 374.59 365.37 382.28 365.24 389.96 364.96 397.65 364.68 405.33 364.26 413.02 363.83 420.71 363.27 428.39 362.71 436.08 362.01 443.77 361.31 451.45 360.48 459.14 359.64 466.82 358.68 474.51 357.71" stroke="#ff00ff" stroke-width="4"></path><path d="M497.47 354.37Q505.52 353.03 513.58 351.7 521.63 350.24 529.68 348.78 537.74 347.21 545.79 345.64 553.85 343.95 561.9 342.27 569.95 340.49 578.01 338.7 586.06 336.83 594.11 334.95 602.17 332.99 610.22 331.04 618.27 329 626.33 326.97 634.38 324.88 642.44 322.79 650.49 320.64 658.54 318.5 666.6 316.31 674.65 314.12" stroke="#0080ff" stroke-width="4"></path><path d="M706.26 305.37Q713.89 303.24 721.53 301.11 729.16 298.98 736.79 296.85 744.42 294.73 752.06 292.62 759.69 290.52 767.32 288.42 774.95 286.35 782.59 284.28 790.22 282.25 797.85 280.21 805.49 278.23 813.12 276.24 820.75 274.32 828.38 272.39 836.02 270.52 843.65 268.66 851.28 266.87 858.91 265.08 866.55 263.37 874.18 261.66" stroke="#00ffff" stroke-width="4"></path><path d="M912.86 253.82Q918.25 252.84 923.65 251.86 929.04 250.94 934.43 250.02 939.83 249.16 945.22 248.29" stroke="#00ffff" stroke-width="4"></path><path d="M980 243.53Q987.61 242.7 995.22 241.87 1002.84 241.17 1010.45 240.46 1018.06 239.9 1025.67 239.33 1033.28 238.9 1040.9 238.47 1048.51 238.18 1056.12 237.89 1063.73 237.73 1071.34 237.58 1078.96 237.57 1086.57 237.56 1094.18 237.7 1101.79 237.83 1109.41 238.1 1117.02 238.37 1124.63 238.78 1132.24 239.19 1139.85 239.74 1147.47 240.29 1155.08 240.98 1162.69 241.66" stroke="#8000ff" stroke-width="4"></path><path d="M1194.2 245.32Q1201.83 246.4 1209.46 247.48 1217.08 248.68 1224.71 249.88 1232.34 251.19 1239.97 252.51 1247.6 253.93 1255.22 255.35 1262.85 256.88 1270.48 258.4 1278.11 260.02 1285.74 261.64 1293.37 263.35 1300.99 265.06 1308.62 266.85 1316.25 268.64" stroke="#ff0080" stroke-width="4"></path><path d="M1331.09 272.26Q1336.04 273.5 1340.99 274.74 1345.94 276.01 1350.89 277.28 1355.84 278.57 1360.79 279.86 1365.74 281.17 1370.69 282.48 1375.64 283.81 1380.59 285.13 1385.54 286.48 1390.5 287.82 1395.45 289.18 1400.4 290.53 1405.35 291.9 1410.3 293.27 1415.25 294.64 1420.2 296.02 1425.15 297.4 1430.1 298.77 1435.05 300.16 1440 301.54" stroke="#8000ff" stroke-width="4"></path><path d="M34.74 354.28Q42.35 356.37 49.97 358.46 57.58 360.52 65.19 362.58 72.8 364.59 80.42 366.61 88.03 368.58 95.64 370.56 103.25 372.47 110.87 374.38 118.48 376.23 126.09 378.08 133.71 379.85 141.32 381.63 148.93 383.32 156.54 385.01 164.16 386.61 171.77 388.22" stroke="#ff0080" stroke-width="4"></path><path d="M191.46 392.08Q200.54 393.7 209.62 395.33 218.7 396.79 227.78 398.26 236.86 399.55 245.94 400.85" stroke="#8000ff" stroke-width="4"></path><path d="M265.15 403.21Q272.96 404.02 280.78 404.83 288.59 405.5 296.41 406.17 304.22 406.69 312.04 407.22" stroke="#4000ff" stroke-width="4"></path><path d="M348.54 408.54Q356.54 408.57 364.55 408.6 372.55 408.48 380.56 408.36 388.56 408.08 396.56 407.8 404.57 407.37 412.57 406.94 420.58 406.36 428.58 405.77" stroke="#0080ff" stroke-width="4"></path><path d="M457.22 402.94Q464.91 401.99 472.59 401.05 480.28 399.97 487.97 398.9 495.66 397.7 503.34 396.5 511.03 395.19 518.72 393.87 526.4 392.45 534.09 391.02 541.78 389.49 549.47 387.96 557.15 386.34 564.84 384.71" stroke="#4000ff" stroke-width="4"></path><path d="M596.41 377.48Q605.65 375.21 614.9 372.95 624.14 370.59 633.39 368.23 642.63 365.79 651.88 363.36 661.13 360.86 670.37 358.37" stroke="#8000ff" stroke-width="4"></path><path d="M701.88 349.67Q709.48 347.55 717.09 345.43 724.69 343.31 732.3 341.18 739.9 339.07 747.51 336.95 755.11 334.85 762.72 332.76 770.32 330.68 777.93 328.61 785.53 326.57 793.13 324.54 800.74 322.54 808.34 320.55 815.95 318.61 823.55 316.67 831.16 314.79 838.76 312.92 846.37 311.11 853.97 309.3 861.58 307.57 869.18 305.84 876.79 304.19 884.39 302.55" stroke="#ff00ff" stroke-width="4"></path><path d="M910.13 297.41Q911.05 297.23 911.96 297.06 912.88 296.89 913.8 296.72 914.71 296.55 915.63 296.38" stroke="#ff0080" stroke-width="4"></path><path d="M934.98 293.01Q942.85 291.77 950.71 290.53 958.58 289.42 966.45 288.31 974.31 287.33 982.18 286.36 990.05 285.52 997.91 284.68 1005.78 283.98 1013.64 283.28 1021.51 282.72 1029.38 282.17 1037.24 281.76 1045.11 281.36 1052.98 281.1 1060.84 280.84 1068.71 280.73 1076.58 280.62 1084.44 280.67 1092.31 280.71" stroke="#00ffff" stroke-width="4"></path><path d="M1103.89 280.96Q1111.71 281.26 1119.53 281.57 1127.35 282.01 1135.17 282.46 1142.99 283.05 1150.81 283.65 1158.63 284.38 1166.45 285.11 1174.27 285.99 1182.09 286.86 1189.91 287.87 1197.73 288.88 1205.55 290.01 1213.37 291.15 1221.19 292.41 1229.01 293.67 1236.83 295.05 1244.65 296.43 1252.47 297.93 1260.29 299.42 1268.11 301.02 1275.93 302.61 1283.75 304.31 1291.57 306" stroke="#00ffff" stroke-width="4"></path><path d="M1329.8 315.01Q1336.14 316.61 1342.49 318.2 1348.83 319.83 1355.17 321.46 1361.52 323.13 1367.86 324.8" stroke="#ff00ff" stroke-width="4"></path><path d="M1397.93 332.93Q1402.17 334.1 1406.41 335.27 1410.65 336.44 1414.9 337.62 1419.14 338.8 1423.38 339.98" stroke="#ff00ff" stroke-width="4"></path><path d="M26.01 394.94Q33.56 397.03 41.12 399.11 48.67 401.18 56.23 403.24 63.78 405.27 71.34 407.29 78.89 409.28 86.45 411.26 94 413.2 101.56 415.13 109.11 417.01 116.66 418.88 124.22 420.69 131.77 422.5 139.33 424.23 146.88 425.96 154.44 427.61 161.99 429.26 169.55 430.81 177.1 432.37" stroke="#4000ff" stroke-width="4"></path><path d="M196.97 436.17Q202.76 437.2 208.56 438.22 214.36 439.18 220.15 440.14 225.94 441.04 231.74 441.93" stroke="#ff00ff" stroke-width="4"></path><path d="M260.98 445.81Q268.48 446.63 275.98 447.44 283.48 448.13 290.98 448.81 298.48 449.37 305.98 449.92 313.48 450.34 320.98 450.77 328.48 451.05 335.98 451.34 343.48 451.49 350.98 451.64 358.49 451.66 365.99 451.67 373.49 451.55 380.99 451.42 388.49 451.16 395.99 450.9 403.49 450.51 410.99 450.11 418.49 449.59 425.99 449.06 433.49 448.4 440.99 447.74 448.49 446.95 455.99 446.16" stroke="#0080ff" stroke-width="4"></path><path d="M469.88 444.48Q477.94 443.37 486 442.26 494.05 441.02 502.11 439.78 510.17 438.41 518.23 437.04 526.28 435.54 534.34 434.05 542.4 432.44 550.45 430.84 558.51 429.12 566.57 427.41 574.63 425.6 582.68 423.78 590.74 421.88 598.8 419.98" stroke="#ff00ff" stroke-width="4"></path><path d="M620.09 414.72Q628.13 412.65 636.18 410.58 644.22 408.46 652.26 406.33 660.31 404.16 668.35 401.99 676.39 399.79 684.43 397.58 692.48 395.35 700.52 393.13 708.56 390.88 716.61 388.64 724.65 386.39 732.69 384.15 740.74 381.91 748.78 379.68" stroke="#0080ff" stroke-width="4"></path><path d="M760.66 376.4Q769.11 374.09 777.55 371.79 786 369.53 794.44 367.27 802.89 365.06 811.33 362.86 819.78 360.72 828.23 358.58 836.67 356.52 845.12 354.46 853.56 352.49 862.01 350.53 870.45 348.66 878.9 346.79" stroke="#00ffff" stroke-width="4"></path><path d="M888.93 344.68Q896.68 343.12 904.44 341.57 912.19 340.12 919.95 338.67 927.7 337.34 935.46 336 943.21 334.79 950.97 333.57 958.72 332.48 966.48 331.38 974.24 330.42 981.99 329.46 989.75 328.63 997.5 327.79 1005.25 327.1 1013.01 326.41 1020.76 325.85 1028.52 325.3" stroke="#0080ff" stroke-width="4"></path><path d="M1056.5 324.03Q1059.41 323.96 1062.32 323.88 1065.23 323.83 1068.14 323.78 1071.05 323.75 1073.96 323.71" stroke="#00ffff" stroke-width="4"></path><path d="M1110.35 324.25Q1118.35 324.62 1126.35 325 1134.34 325.52 1142.34 326.05 1150.34 326.72 1158.34 327.39 1166.34 328.22 1174.33 329.04 1182.33 330 1190.33 330.97" stroke="#8000ff" stroke-width="4"></path><path d="M1217.79 334.92Q1225.48 336.19 1233.17 337.46 1240.86 338.85 1248.55 340.23 1256.24 341.73 1263.93 343.22 1271.62 344.81 1279.31 346.41 1286.99 348.09 1294.68 349.78 1302.37 351.55 1310.06 353.32 1317.75 355.17 1325.44 357.02 1333.13 358.93 1340.82 360.85" stroke="#0080ff" stroke-width="4"></path><path d="M1356.79 364.96Q1360.95 366.06 1365.11 367.15 1369.27 368.26 1373.43 369.36 1377.59 370.48 1381.75 371.6 1385.91 372.73 1390.07 373.86 1394.23 375 1398.39 376.14 1402.56 377.28 1406.72 378.43 1410.88 379.58 1415.04 380.74 1419.2 381.89 1423.36 383.05 1427.52 384.21 1431.68 385.37 1435.84 386.53 1440 387.69" stroke="#8000ff" stroke-width="4"></path><path d="M35.91 440.76Q43.77 442.91 51.63 445.07 59.49 447.19 67.35 449.31 75.22 451.39 83.08 453.46 90.94 455.49 98.8 457.51" stroke="#8000ff" stroke-width="4"></path><path d="M119.28 462.59Q122.47 463.36 125.67 464.13 128.86 464.88 132.05 465.64 135.25 466.38 138.44 467.12" stroke="#00ffff" stroke-width="4"></path><path d="M159.59 471.82Q167.14 473.39 174.69 474.96 182.25 476.44 189.8 477.92 197.35 479.29 204.9 480.66 212.45 481.93 220.01 483.2 227.56 484.35 235.11 485.5 242.66 486.53 250.21 487.57 257.77 488.48 265.32 489.38 272.87 490.17 280.42 490.95 287.97 491.6 295.53 492.25 303.08 492.77 310.63 493.29" stroke="#8000ff" stroke-width="4"></path><path d="M321.5 493.87Q329.64 494.17 337.78 494.47 345.92 494.61 354.06 494.75 362.19 494.73 370.33 494.7 378.47 494.52 386.61 494.34 394.75 494 402.89 493.65 411.03 493.15 419.17 492.65 427.3 491.99 435.44 491.33 443.58 490.52 451.72 489.71" stroke="#ff00ff" stroke-width="4"></path><path d="M476.88 486.63Q484.92 485.46 492.95 484.3 500.99 483 509.02 481.71 517.06 480.29 525.09 478.87 533.13 477.33 541.16 475.79 549.2 474.15 557.23 472.5 565.27 470.75 573.3 468.99 581.34 467.15 589.37 465.3 597.41 463.37 605.44 461.44 613.48 459.44 621.51 457.43 629.55 455.36 637.58 453.29 645.62 451.17 653.65 449.04" stroke="#00ffff" stroke-width="4"></path><path d="M669.45 444.77Q677.01 442.7 684.57 440.62 692.13 438.53 699.69 436.43 707.25 434.33 714.81 432.22 722.37 430.11 729.92 428 737.48 425.89 745.04 423.79 752.6 421.7 760.16 419.61 767.72 417.55 775.28 415.48" stroke="#4000ff" stroke-width="4"></path><path d="M808.81 406.58Q817.23 404.44 825.64 402.3 834.06 400.24 842.48 398.17 850.89 396.2 859.31 394.22 867.73 392.34 876.14 390.46 884.56 388.69 892.98 386.92 901.4 385.27 909.81 383.62 918.23 382.09 926.65 380.57 935.06 379.18 943.48 377.79" stroke="#ff0080" stroke-width="4"></path><path d="M955.9 375.92Q962.56 375.01 969.22 374.1 975.88 373.29 982.54 372.47 989.2 371.75 995.86 371.03" stroke="#4000ff" stroke-width="4"></path><path d="M1029.65 368.31Q1037.51 367.9 1045.36 367.5 1053.22 367.24 1061.07 366.99 1068.93 366.88 1076.79 366.78 1084.64 366.82 1092.5 366.86 1100.35 367.06 1108.21 367.25" stroke="#0080ff" stroke-width="4"></path><path d="M1136.19 368.68Q1143.86 369.27 1151.54 369.86 1159.21 370.59 1166.88 371.31 1174.56 372.17 1182.23 373.03 1189.9 374.02 1197.58 375.01 1205.25 376.12 1212.92 377.24 1220.6 378.47 1228.27 379.7 1235.95 381.05 1243.62 382.4 1251.29 383.85 1258.97 385.31 1266.64 386.87 1274.31 388.43 1281.99 390.08 1289.66 391.73 1297.33 393.47 1305.01 395.21 1312.68 397.03 1320.35 398.85 1328.03 400.75 1335.7 402.64" stroke="#ff0080" stroke-width="4"></path><path d="M1350.96 406.53Q1360.86 409.13 1370.75 411.72 1380.65 414.4 1390.55 417.07 1400.44 419.79 1410.34 422.51" stroke="#ff0080" stroke-width="4"></path><path d="M40.61 485.13Q48.71 487.34 56.8 489.55 64.9 491.72 72.99 493.89 81.09 496.01 89.19 498.13 97.28 500.19 105.38 502.25 113.47 504.24 121.57 506.23 129.67 508.13 137.76 510.04 145.86 511.86 153.96 513.68 162.05 515.4 170.15 517.11 178.24 518.72 186.34 520.34" stroke="#00ffff" stroke-width="4"></path><path d="M221.28 526.48Q229.15 527.66 237.03 528.85 244.9 529.91 252.78 530.97 260.65 531.89 268.52 532.82 276.4 533.6 284.27 534.38 292.15 535.03 300.02 535.67 307.89 536.16 315.77 536.66 323.64 537.01 331.52 537.35 339.39 537.55 347.26 537.75 355.14 537.79 363.01 537.84 370.89 537.74 378.76 537.63" stroke="#ff0080" stroke-width="4"></path><path d="M417.58 535.84Q422.67 535.45 427.76 535.07 432.86 534.62 437.95 534.18 443.04 533.68 448.13 533.17" stroke="#4000ff" stroke-width="4"></path><path d="M484.04 528.7Q492.02 527.49 499.99 526.27 507.97 524.93 515.94 523.59 523.92 522.13 531.9 520.67 539.87 519.1 547.85 517.53 555.82 515.85 563.8 514.17 571.77 512.39 579.75 510.61 587.73 508.75 595.7 506.88 603.68 504.93 611.65 502.99 619.63 500.97 627.61 498.95 635.58 496.88 643.56 494.8 651.53 492.67 659.51 490.54" stroke="#00ffff" stroke-width="4"></path><path d="M677.38 485.68Q685.21 483.52 693.05 481.36 700.88 479.18 708.71 477 716.54 474.81 724.38 472.62 732.21 470.44 740.04 468.26 747.87 466.09 755.71 463.92 763.54 461.77 771.37 459.62 779.21 457.51 787.04 455.39 794.87 453.32 802.7 451.25 810.54 449.23 818.37 447.21 826.2 445.26 834.03 443.3 841.87 441.41 849.7 439.53" stroke="#8000ff" stroke-width="4"></path><path d="M875.96 433.58Q883.7 431.94 891.45 430.31 899.19 428.78 906.94 427.24 914.68 425.81 922.43 424.39 930.17 423.07 937.92 421.76 945.66 420.56 953.41 419.36 961.15 418.29 968.89 417.22 976.64 416.28 984.38 415.34 992.13 414.53 999.87 413.72 1007.62 413.05 1015.36 412.37 1023.11 411.84 1030.85 411.31 1038.6 410.92 1046.34 410.54" stroke="#8000ff" stroke-width="4"></path><path d="M1079.33 409.85Q1086.84 409.91 1094.35 409.97 1101.86 410.17 1109.37 410.37 1116.88 410.71 1124.39 411.04 1131.9 411.51 1139.41 411.98 1146.92 412.59 1154.43 413.19 1161.94 413.93 1169.45 414.66 1176.96 415.52 1184.47 416.38 1191.98 417.37 1199.49 418.35 1207 419.45 1214.51 420.56 1222.02 421.77 1229.53 422.99 1237.04 424.32 1244.55 425.65 1252.06 427.08 1259.57 428.51 1267.08 430.03 1274.59 431.56" stroke="#00ffff" stroke-width="4"></path><path d="M1291.56 435.23Q1299.31 437 1307.05 438.77 1314.8 440.62 1322.54 442.46 1330.29 444.38 1338.03 446.3 1345.78 448.28 1353.53 450.27 1361.27 452.3 1369.02 454.34 1376.76 456.42 1384.51 458.5 1392.25 460.62 1400 462.73 1407.74 464.87 1415.49 467.01" stroke="#8000ff" stroke-width="4"></path><path d="M8.1 519.18Q15.74 521.31 23.38 523.44 31.01 525.55 38.65 527.67 46.29 529.76 53.93 531.84 61.57 533.9 69.21 535.96 76.84 537.97 84.48 539.98 92.12 541.95 99.76 543.91 107.4 545.81 115.04 547.72 122.67 549.55 130.31 551.38 137.95 553.14 145.59 554.9 153.23 556.57 160.87 558.25 168.5 559.83 176.14 561.41 183.78 562.89 191.42 564.38" stroke="#00ffff" stroke-width="4"></path><path d="M219.87 569.33Q227.84 570.54 235.81 571.75 243.78 572.84 251.75 573.92 259.72 574.86 267.7 575.8 275.67 576.6 283.64 577.4 291.61 578.06 299.58 578.71 307.55 579.22 315.52 579.72 323.49 580.07 331.46 580.43 339.43 580.63 347.41 580.83 355.38 580.87 363.35 580.92 371.32 580.81 379.29 580.7" stroke="#ff0080" stroke-width="4"></path><path d="M409.52 579.43Q417.11 578.91 424.69 578.39 432.28 577.73 439.86 577.08 447.45 576.29 455.03 575.5 462.62 574.58 470.2 573.67 477.79 572.62 485.37 571.58 492.96 570.42 500.54 569.26 508.13 567.99 515.72 566.71 523.3 565.33 530.89 563.94 538.47 562.45 546.06 560.97 553.64 559.38 561.23 557.8 568.81 556.12 576.4 554.45 583.98 552.7 591.57 550.94" stroke="#8000ff" stroke-width="4"></path><path d="M627.14 542.15Q629.75 541.48 632.35 540.81 634.95 540.13 637.56 539.45 640.16 538.77 642.77 538.08" stroke="#4000ff" stroke-width="4"></path><path d="M666.08 531.84Q671.72 530.3 677.35 528.76 682.99 527.21 688.63 525.66 694.26 524.09 699.9 522.53" stroke="#ff0080" stroke-width="4"></path><path d="M713.19 518.82Q721.25 516.57 729.32 514.32 737.38 512.08 745.44 509.83 753.51 507.6 761.57 505.38 769.64 503.18 777.7 500.98 785.76 498.82 793.83 496.66 801.89 494.55 809.95 492.44 818.02 490.39 826.08 488.35 834.15 486.37 842.21 484.39" stroke="#ff00ff" stroke-width="4"></path><path d="M880.06 475.77Q886.6 474.41 893.14 473.04 899.68 471.75 906.23 470.46 912.77 469.24 919.31 468.02" stroke="#00ffff" stroke-width="4"></path><path d="M933.31 465.59Q938.2 464.8 943.09 464.01 947.98 463.26 952.87 462.52 957.76 461.83 962.65 461.13" stroke="#ff00ff" stroke-width="4"></path><path d="M980.71 458.84Q986.58 458.19 992.46 457.54 998.33 456.96 1004.2 456.39 1010.08 455.9 1015.95 455.41" stroke="#4000ff" stroke-width="4"></path><path d="M1042.98 453.76Q1048.87 453.53 1054.75 453.31 1060.64 453.17 1066.53 453.03 1072.41 452.98 1078.3 452.92" stroke="#ff00ff" stroke-width="4"></path><path d="M1099.31 453.15Q1107.26 453.41 1115.2 453.68 1123.15 454.09 1131.1 454.51 1139.04 455.07 1146.99 455.64 1154.94 456.35 1162.88 457.06 1170.83 457.92 1178.78 458.78 1186.72 459.77 1194.67 460.77" stroke="#ff0080" stroke-width="4"></path><path d="M1224.72 465.26Q1232.74 466.65 1240.76 468.03 1248.78 469.54 1256.8 471.04 1264.82 472.66 1272.83 474.27 1280.85 475.99 1288.87 477.71 1296.89 479.53 1304.91 481.35 1312.93 483.25 1320.95 485.15 1328.97 487.13 1336.99 489.12 1345.01 491.16 1353.03 493.21 1361.04 495.32 1369.06 497.43 1377.08 499.58 1385.1 501.74 1393.12 503.93 1401.14 506.12" stroke="#00ffff" stroke-width="4"></path></g><defs><clipPath id="SvgjsClipPath1000"><rect width="1440" height="560" x="0" y="0"></rect></clipPath></defs></svg>